<svg width="323" height="206" viewBox="0 0 323 206" fill="none" xmlns="http://www.w3.org/2000/svg">
<path fill-rule="evenodd" clip-rule="evenodd" d="M164.8 82.3536C177.738 81.3245 190.082 86.1459 200.423 93.6606C213.751 103.346 225.047 117.197 232.693 131.793C233.506 132.419 234.308 133.062 235.103 133.71C239.359 137.177 243.517 140.838 247.202 144.914C249.26 147.189 254.656 152.721 252.313 156.21C251.816 156.951 251 157.376 250.182 157.67C247.889 158.491 245.498 158.907 243.237 159.867C240.445 161.052 237.551 162.712 235.762 165.243C235.253 165.963 235.121 166.813 234.437 167.13C233.712 167.466 232.345 167.335 231.552 167.413C229.959 167.569 228.365 167.725 226.772 167.881C223.028 168.248 219.115 168.289 215.453 169.193L198.606 173.352C195.161 174.203 191.2 174.672 187.933 176.07C183.056 178.157 178.404 181.213 173.738 183.731C171.482 184.948 169.226 186.166 166.97 187.384C165.868 187.978 165.114 187.986 163.823 188.086L154.505 188.803C153.002 188.918 152.28 189.523 152.083 188.019L149.917 171.482L148.772 162.738C148.704 162.218 148.724 159.641 148.298 159.33C148.031 159.135 146.462 159.555 146.172 159.591L141.943 160.109C138.896 160.482 135.851 160.855 132.805 161.228C132.557 161.258 131.188 161.242 131.034 161.444C130.854 161.682 131.196 163.041 131.227 163.334C131.55 166.404 131.874 169.475 132.197 172.546C132.235 172.902 132.667 174.553 132.439 174.845C132.281 175.048 131.133 175.073 130.9 175.111C127.962 175.59 125.024 176.07 122.085 176.55C119.981 176.893 117.231 176.876 115.242 177.667C114.099 178.122 112.969 179.283 111.982 180.009L97.6515 190.555C95.478 192.154 92.5486 191.746 89.9018 191.948L59.369 194.274C59.3943 193.323 59.4199 192.373 59.4452 191.421C59.5795 186.385 59.7136 181.348 59.8479 176.312L60.0238 169.725C60.0349 169.308 59.8683 168.088 60.1408 167.78C60.503 167.371 62.1218 167.193 62.6243 167.045C64.3095 166.546 65.9945 166.047 67.6794 165.548C72.6231 164.085 77.566 162.622 82.5093 161.159C87.3951 159.713 92.2803 158.266 97.1657 156.82C98.8375 156.326 100.509 155.831 102.18 155.336C102.566 155.222 103.915 155.07 104.184 154.743C104.522 154.332 104.371 152.576 104.425 152.055C104.69 149.51 105.068 146.977 105.528 144.461C108.85 126.31 116.613 107.873 131.007 95.7649C140.521 87.7606 152.457 83.3353 164.8 82.3536ZM167.082 118.752C165.801 117.248 163.649 114.795 161.386 115.202C159.547 115.533 158.545 117.813 157.904 119.328C155.328 125.42 154.529 132.402 153.727 138.912C153.225 142.997 152.82 147.1 152.561 151.208C161.74 150.502 170.918 149.796 180.096 149.09C179.663 146.165 179.315 143.214 178.794 140.303C178.532 138.845 177.809 137.531 177.191 136.184C174.427 130.156 171.409 123.833 167.082 118.752Z" fill="#159C7D"/>
<path fill-rule="evenodd" clip-rule="evenodd" d="M294.489 0L294.713 0.00387817C300.804 0.165931 306.175 4.08532 310.341 8.23318C312.401 10.2841 314.28 12.6966 315.164 15.5037C316.185 18.7465 315.849 22.3134 315.072 25.568C313.356 32.7603 311.259 39.9896 308.901 46.9991C307.741 50.4472 306.058 53.8282 305.183 57.3573C304.461 60.2649 307.501 62.3827 307.617 65.3706C307.735 68.3849 305.706 71.2166 302.92 72.2939C301.733 72.7527 300.297 72.3694 299.203 72.8396C298.202 73.2693 297.851 74.5377 297.659 75.5114C297.397 76.8393 297.445 78.1662 297.519 79.5059C297.565 80.3255 297.36 81.6631 297.76 82.3941C298.035 82.8962 298.535 83.0603 298.966 83.4038C299.555 83.8727 299.947 84.4561 300.463 84.9949C301.313 85.8841 302.131 86.3658 302.362 87.6629C302.485 87.3682 302.608 87.0736 302.731 86.7792C303.365 87.9389 303.835 88.495 303.232 89.5958C305.102 89.4122 306.21 92.805 306.7 94.0917C307.598 96.4463 308.215 98.893 309.115 101.249C310.348 104.479 311.969 107.667 312.756 111.047C313.417 113.888 313.94 116.805 314.528 119.666C314.859 121.276 315.147 122.912 315.753 124.448C315.988 125.044 316.425 125.446 316.696 125.977C317.066 126.705 316.921 127.089 316.939 127.886C316.97 129.306 317.866 130.228 318.148 131.608C318.449 133.082 318.695 134.573 318.999 136.05C319.61 139.026 320.744 141.997 321.017 145.011C321.333 148.511 322.013 151.967 322.355 155.468C322.654 158.527 322.146 161.811 322.785 164.77C323.351 167.397 322.649 169.798 322.399 172.406C322.336 173.068 323.355 177.01 321.716 176.253C322.024 177.183 322.456 177.625 322.479 178.645C322.5 179.598 322.255 180.579 322.054 181.503C321.666 183.29 321.408 185.237 320.648 186.911C319.789 188.805 318.48 189.031 316.7 189.681C315.495 190.121 313.325 191.69 312.376 190.011C311.809 191.735 310.704 190.544 309.465 190.447C309.474 190.448 308.756 190.713 308.622 190.731C308.186 190.79 307.671 190.584 307.238 190.548C306.157 190.459 305.097 190.603 304.04 190.822C301.604 191.327 299.247 192.025 296.775 192.377C291.946 193.064 287.214 192.739 282.379 193.04C272.915 193.628 263.295 193.134 253.824 192.879C252.808 192.852 251.712 192.994 250.709 192.838C249.628 192.67 249.392 192.158 248.549 191.645C247.149 190.794 245.595 191.622 244.142 191.933C239.876 192.846 235.421 192.914 231.121 193.797C222.384 195.591 214.335 199.132 205.967 202.118C202.339 203.413 198.081 205.51 194.169 205.601C189.428 205.703 190.548 201.033 191.419 198.032C188.679 198.759 184.378 202.082 181.593 200.153C178.275 197.855 182.497 194.035 182.696 191.334C176.765 192.565 170.038 195.265 164.019 193.071C162.86 192.649 161.852 191.756 160.609 191.611C159.316 191.46 157.95 191.917 156.643 191.909C153.666 191.89 150.775 191.493 147.799 191.86C141.163 192.677 134.622 193.125 127.933 193.301C121.199 193.478 114.464 193.877 107.727 193.86C104.307 193.852 100.824 193.446 97.4112 193.628C96.0712 193.699 93.1871 194.673 92.2456 193.311C91.3003 194.444 90.4973 193.687 89.2847 193.813C89.5094 193.789 88.6531 194.285 88.5243 194.332C87.8868 194.569 87.2909 194.497 86.6254 194.49C84.8525 194.472 83.1963 195.302 81.4324 195.222C80.9864 195.202 80.6492 195.072 80.2707 194.919C80.181 194.882 80.2025 194.497 80.0588 194.464C79.1959 194.271 79.4189 194.8 78.8711 195.066C78.2637 195.361 77.3652 194.884 77.7107 195.792C76.0629 195.719 74.5015 196.275 73.0022 195.297C73.711 196.864 71.2349 195.563 70.5877 195.537C69.5122 195.494 68.5703 196.032 67.4976 196.155C66.2112 196.304 64.9186 195.707 63.6599 196.071C62.6738 196.356 62.3362 197.042 61.3098 196.692C60.4379 196.394 59.8932 195.747 59.4701 195.039C58.8863 194.063 58.8115 193.627 57.4036 193.61C56.3596 193.597 55.3101 193.822 54.256 193.82C53.0483 193.818 51.721 193.689 50.6185 194.263C49.4308 194.882 48.7331 195.823 47.4159 196.308C41.4926 198.486 34.9905 197.909 28.8103 197.872C26.2029 197.857 24.2894 198.096 23.5574 195.122C22.939 192.609 22.6911 189.982 22.101 187.448C21.378 184.344 20.5833 181.463 18.9791 178.688C17.4231 175.997 16.1139 173.216 14.7589 170.42C11.941 164.606 8.01851 159.659 3.64516 154.933C1.98377 153.138 0.0796533 151.138 0.00233199 148.553C-0.0543518 146.32 0.929045 144.008 2.21889 142.229C3.37057 140.642 5.26811 138.851 7.41462 139.222C8.70723 139.445 9.55455 140.487 10.5192 141.269C11.5736 142.124 12.7222 142.706 13.993 143.173C16.9563 144.259 19.4414 145.449 22.0075 147.325C24.6042 149.224 27.0315 151.35 29.2771 153.652C33.5877 158.072 38.0047 162.664 40.4815 168.387C41.4577 170.642 42.0813 172.817 42.7468 175.155C43.4006 177.451 45.1804 176.818 47.1818 176.488C49.6209 176.086 52.0721 175.87 54.5275 175.615C55.4517 175.519 56.7547 175.491 57.3111 174.617C57.9247 173.654 57.2218 172.407 57.1661 171.408C57.1363 170.874 57.3132 170.481 57.3575 169.96C57.4084 169.369 57.2336 168.828 57.2329 168.239C57.2322 166.971 57.8253 165.843 58.8112 165.075C60.6557 163.638 63.3462 162.781 65.5301 161.991C68.5118 160.911 71.7068 160.381 74.7775 159.61C78.235 158.742 81.7132 157.961 85.1894 157.172C88.605 156.398 92.0154 155.602 95.4676 155.006C97.4926 154.656 99.6893 154.784 101.652 154.144C103.739 153.465 103.393 151.366 103.386 149.506C103.376 146.435 103.757 143.273 104.206 140.236C105.163 133.781 107.443 127.464 109.516 121.295C111.512 115.354 113.986 109.652 118.069 104.83C122.044 100.136 126.922 95.8888 131.983 92.4009C137.256 88.7665 143.123 86.1407 148.628 82.8962C147.425 81.9762 145.99 81.1912 145.299 79.7743C144.518 78.1749 144.849 76.2624 144.882 74.5529C144.919 72.6235 144.978 70.9299 145.667 69.0919C146.044 68.0853 147.502 66.176 147.279 65.0815C146.904 63.2435 142.884 61.901 141.403 61.1448C139.081 59.9585 136.754 58.7535 134.614 57.2559C132.561 55.8192 130.629 54.0899 129.384 51.8846C129.032 51.2589 128.741 50.6017 128.516 49.9195C128.265 49.1584 128.44 48.8991 127.679 48.8433C126.465 48.754 124.644 49.9728 123.621 50.5113C118.346 53.2873 112.552 57.0232 106.328 56.7752C104.069 56.6856 101.53 55.9761 100.732 53.6208C99.6807 50.5199 101.876 47.3166 103.802 45.077C100.045 45.6674 93.1175 47.5126 90.1531 44.1608C88.1777 41.9273 89.6677 38.3823 91.3242 36.4456C93.513 33.8874 96.6332 32.3299 99.5155 30.7021C95.9787 29.3537 92.0635 28.4915 88.9533 26.2352C85.9785 24.0776 86.3463 20.7628 88.6957 18.2178C91.2075 15.4972 95.5996 14.1038 99.0539 13.0937C103.291 11.8548 107.5 11.9542 111.866 12.0373C119.702 12.1862 126.433 15.0747 132.86 19.4418C136.259 21.7511 139.608 24.2432 142.622 27.04C145.449 29.6629 148.464 32.102 151.25 34.7534C153.949 37.3223 156.072 40.5052 158.92 42.9052C161.342 44.9457 163.998 47.8381 167.075 48.7439C170.337 49.7045 173.274 51.2932 176.565 52.2388C180.298 53.3112 183.504 55.1045 186.963 56.8154C201.481 63.9956 217.065 68.6685 232.37 73.8233C240.198 76.4598 248.079 78.3182 256.071 80.3318C260.084 81.3429 263.811 81.8823 267.953 81.6995C268.908 81.6576 269.82 81.6327 270.762 81.7653C271.452 81.8623 271.977 82.1233 272.595 81.7106C273.482 81.1178 273.815 79.5748 274.344 78.6963C271.397 77.7825 268.511 76.7939 267.166 73.7735C266.319 71.87 265.879 69.6501 265.508 67.6078C265.308 66.5088 265.304 65.3997 265.133 64.3C265.04 63.6926 264.751 63.0579 264.773 62.4374C264.707 62.7826 262.511 61.6472 262.192 61.4363C260.963 60.6223 260.74 58.9813 260.75 57.5962C260.761 56.0318 261.234 54.3122 262.296 53.1259C262.799 52.5643 263.397 52.1432 264.128 51.9317C264.647 51.7814 265.331 51.9781 265.789 51.8268C267.818 51.156 268.045 46.1348 268.333 44.3069C268.967 40.2791 269.599 36.4338 270.968 32.5729C273.464 25.534 276.677 18.6932 280.503 12.2845C283.782 6.79306 287.058 0.0783255 294.267 0H294.489ZM232.169 169.089C229.251 169.594 226.455 170.626 223.637 171.501C221.004 172.318 218.337 172.839 215.636 173.37C210.262 174.427 204.769 175.395 199.473 176.774C197.981 177.162 197.197 178.038 195.895 178.647C194.931 179.098 194.025 178.641 193.022 178.603C190.837 178.519 188.413 179.232 186.312 179.763C181.352 181.016 176.951 183.193 172.462 185.599C172.06 185.814 169.345 187.057 169.473 187.571C169.578 187.991 173.03 186.863 173.579 186.78C176.359 186.356 179.075 185.48 181.834 184.936C184.099 184.489 186.39 184.186 188.645 183.69C191.155 183.138 196.501 181.218 196.714 185.363C196.943 189.843 191.996 191.221 189.022 193.311C189.354 193.883 194.125 191.998 194.716 191.807C196.745 191.153 198.627 189.974 200.692 189.472C204.286 188.598 203.85 192.567 201.867 194.333C199.662 196.294 196.017 196.887 194.796 199.905C196.399 200.483 198.495 199.398 199.967 198.858C201.901 198.149 203.841 197.451 205.787 196.775C210.154 195.258 214.301 193.167 218.691 191.722C227.698 188.756 237.219 187.906 246.634 187.379C245.795 184.124 244.878 180.889 244.124 177.613C243.801 176.211 243.506 174.802 243.261 173.384C243.091 172.398 243.236 170.038 242.557 169.26C241.73 168.313 239.575 169.644 238.403 169.618C237.254 169.593 236.416 169.001 235.355 168.814C234.347 168.636 233.155 168.918 232.169 169.089ZM62.9293 187.928C62.9293 189.484 62.6596 191.371 64.706 191.553C66.3612 191.7 69.5991 191.889 70.9194 190.712C69.6542 190.095 68.2161 189.987 66.8722 189.632C65.4719 189.261 64.179 188.652 62.9293 187.928ZM96.7062 159.58C96.0837 159.585 95.0334 160.277 94.4655 160.47C93.4264 160.824 92.3703 161.122 91.3093 161.402C88.1216 162.247 84.0173 162.378 82.5536 165.8C81.823 167.508 81.3164 171.9 78.7776 171.884C76.521 171.869 75.1695 168.612 73.5597 167.453C71.8959 166.256 69.258 167.071 67.4637 167.591C65.6402 168.119 62.8105 168.797 63.0152 171.108C63.1624 172.769 63.4622 174.281 63.448 175.978C63.4304 178.139 63.2479 180.294 63.2479 182.455C64.528 180.701 65.6447 177.175 67.9128 176.47C70.204 175.757 71.5001 179.76 72.096 181.294C72.8346 183.195 73.763 185.351 73.8194 187.412C73.8371 188.058 73.4444 189.835 73.8942 190.367C74.2934 190.84 75.8291 190.497 76.3253 190.446C79.3964 190.126 82.4511 189.728 85.5319 189.461C87.114 189.325 87.5447 188.977 87.3899 187.276C87.2684 185.939 87.2306 184.665 87.3982 183.323C88.1462 177.332 91.8353 171.852 98.0729 170.812C101.832 170.185 106.221 170.644 109.974 171.246C111.42 171.478 112.99 172.178 114.46 172.117C115.546 172.072 115.196 172.011 115.418 170.989C115.574 170.274 115.906 169.665 116.45 169.17C116.879 168.779 117.424 169 117.829 168.488C118.122 168.118 118.078 167.614 118.216 167.187C118.486 166.357 118.973 165.237 119.944 165.028C121.506 164.69 123.166 166.781 123.955 167.86C124.769 168.975 125.015 172.305 126.325 172.741C127.837 173.243 129.635 171.262 129.95 170.014C130.374 168.336 129.84 166.52 129.585 164.857C129.567 164.738 129.492 163.633 129.41 163.561C129.189 163.367 127.528 163.422 127.233 163.407C125.786 163.338 124.336 163.335 122.886 163.331C117.205 163.317 111.64 162.758 105.997 162.163C106.816 163.499 108.22 165.693 106.779 167.103C105.712 168.148 103.785 167.624 102.444 167.84C100.55 168.144 97.3572 169.941 95.5521 168.627C93.0085 166.774 95.8859 163.592 96.8306 161.841C97.0328 161.465 97.7828 160.145 97.4649 159.705C97.1896 159.323 97.1093 159.577 96.7062 159.58ZM54.3419 180.169C53.0431 180.565 51.7345 180.946 50.4076 181.24C48.8512 181.584 46.4377 181.25 45.6804 182.962C45.1042 184.264 45.3902 186.364 45.8584 187.661C46.3944 189.146 47.6524 189.528 49.1372 189.642C50.8699 189.774 52.6255 189.494 54.3378 189.258C55.0126 189.164 55.7322 188.995 56.4178 188.994C56.8246 188.993 57.646 189.366 58.0078 189.061C58.4763 188.667 58.1678 186.426 58.1311 185.889C58.04 184.559 57.7876 183.247 57.7187 181.915C57.6695 180.958 58.0303 179.658 56.9088 179.454C56.2104 179.327 54.9489 179.984 54.3419 180.169ZM159.226 153.84C158.256 154.008 157.291 154.128 156.305 154.113C155.698 154.104 154.97 153.897 154.409 154.231C153.372 154.846 153.527 156.467 153.562 157.478C153.605 158.705 153.713 159.951 153.844 161.172C153.969 162.339 154.609 164.262 153.704 165.263C153.066 164.564 152.752 162.281 151.52 162.364C150.166 162.455 150.792 164.62 150.912 165.395C151.576 169.678 152.332 173.964 152.925 178.26C153.207 180.303 153.572 182.33 153.76 184.382C153.887 185.76 153.929 187 155.469 187.286C156.895 187.55 158.499 187.099 159.941 187.064C161.426 187.028 162.276 186.927 163.13 185.585C161.085 185.138 157.845 185.412 156.692 183.248C155.349 180.724 158.183 178.453 159.577 176.728C160.647 175.403 162.836 170.999 164.823 173.615C165.538 174.557 165.667 175.994 166.028 177.09C166.616 178.87 167.334 180.624 168.038 182.361C174.482 179.034 181.094 176.036 188.121 174.168C186.33 171.14 184.112 168.413 182.771 165.131C181.268 161.453 180.023 157.674 178.487 154.007C176.051 155.429 173.447 151.982 171.021 151.843C167.189 151.624 162.983 153.189 159.226 153.84ZM121.057 178.639C119.721 179.434 117.756 180.982 117.435 182.582C116.881 185.347 120.037 183.498 121.012 182.893C123.052 181.626 125.05 181.221 127.393 182.002C130.397 183.003 133.165 184.693 136.39 183.409C137.994 182.77 141.553 181.404 140.592 178.954C139.93 177.265 137.993 178.713 136.969 179.319C134.288 180.905 132.068 179.9 129.39 178.756C126.711 177.611 123.694 177.068 121.057 178.639ZM25.9183 164.446C24.8459 165.966 27.026 165.638 27.9831 165.786C29.9845 166.095 32.0458 167.691 31.4942 169.949C30.9564 172.151 28.8494 173.528 28.4481 175.839C28.1032 177.824 28.4356 180.336 30.3522 181.426C31.4288 182.038 33.7816 182.29 34.8651 181.587C36.5196 180.513 34.4648 178.915 33.3703 178.383C31.9198 177.679 30.7483 177.297 31.4662 175.446C32.3412 173.189 34.0406 171.458 33.8897 168.876C33.765 166.736 32.6358 164.305 30.5787 163.416C29.1057 162.78 26.9228 163.022 25.9183 164.446ZM172.343 157.888C174.197 157.809 174.271 160.049 174.177 161.151C174.049 162.657 174.323 164.263 174.354 165.774C174.396 167.776 174.815 174.332 171.275 173.358C168.999 172.732 167.126 170.55 165.296 169.149C163.613 167.859 159.333 166.311 159.055 163.865C158.742 161.102 162.117 160.585 164.051 160.146C166.811 159.519 169.491 158.01 172.343 157.888ZM163.312 85.0715C160.372 85.3551 157.448 85.7917 154.65 86.7682C152.757 87.4288 149.85 87.9025 148.508 89.5237C147.348 90.9258 147.851 92.9244 147.474 94.581C146.964 96.822 145.417 96.5156 143.916 95.1163C142.12 93.4411 141.601 92.2281 139.101 93.8001C133.926 97.0543 129.824 101.859 125.719 106.31C128.893 107.271 135.12 107.504 136.174 111.469C136.75 113.638 135.013 115.215 133.452 116.398C131.436 117.926 129.333 119.339 127.361 120.929C125.521 122.412 121.396 128.317 120.229 123.125C119.506 119.911 120.86 116.59 120.286 113.416C117.79 117.44 115.255 121.455 112.967 125.602C111.019 129.133 109.887 132.91 108.952 136.814C110.409 136.909 111.925 136.17 113.364 136.606C114.751 137.027 115.4 138.338 115.497 139.697C115.663 142.001 114.599 144.346 114.064 146.558C113.696 148.077 113.274 151.526 111.424 152.02C109.314 152.584 107.99 149.339 107.05 148.02C106.154 149.397 106.169 151.41 106.038 152.988C105.949 154.073 105.344 156.101 106.564 156.701C107.706 157.262 110.114 156.559 111.335 156.507C113.601 156.411 115.911 156.227 118.178 156.294C120.319 156.358 123.47 157.502 124.307 154.87C124.876 153.079 125.378 146.639 128.416 150.133C129.766 151.684 130.821 153.453 132.125 155.034C133.44 156.628 134.636 156.733 136.6 156.652C140.488 156.493 144.284 157.24 148.088 157.842C151.426 158.371 150.988 155.538 150.939 153.016C150.863 149.106 151.638 145.018 152.061 141.13C153.067 131.884 155.13 122.749 158.305 114.005C155.649 113.101 150.888 116.75 148.925 113.978C147.31 111.7 149.384 108.562 150.228 106.433C151.281 103.776 151.814 101 153.531 98.6454C154.073 97.902 154.844 96.9058 155.894 97.1562C156.794 97.3712 157.153 98.5194 157.659 99.1673C159.267 101.223 161.321 102.765 162.751 105.008C163.625 106.38 164.305 107.846 164.589 109.457C164.667 109.9 164.568 110.807 164.88 111.178C165.846 112.33 168.891 112.313 170.244 113.019C174.864 115.43 176.488 122.448 178.282 126.873C178.787 128.119 179.288 129.369 179.557 130.69C179.736 131.573 179.728 132.695 180.207 133.487C181.252 135.216 184.5 133.672 186.094 133.404C188.765 132.956 191.424 132.528 194.106 132.151C195.742 131.921 198.124 131.328 199.371 132.778C200.664 134.281 199.92 136.649 199.271 138.261C198.212 140.893 196.859 143.408 195.741 146.016C194.85 148.096 194.406 150.776 192.692 152.379C191.208 153.768 188.752 154.167 187.005 153.036C186.008 152.391 183.447 146.15 182.772 146.429C183.991 151.249 185.779 156.164 187.669 160.764C188.249 162.177 189.245 165.059 190.711 165.825C191.926 166.46 194.683 165.26 195.926 165.027C197.104 164.806 199.431 163.849 200.558 164.55C201.925 165.401 202.091 167.669 202.244 169.077C202.358 170.121 202.152 170.9 203.422 170.848C204.317 170.812 205.22 170.375 206.078 170.156C208.072 169.647 210.141 169.31 212.17 168.983C216.864 168.225 221.556 167.469 226.247 166.692C230.281 166.024 234.261 166.028 237.906 164.115C239.753 163.145 241.871 162.849 243.838 162.201C245.789 161.558 247.733 161.14 249.775 160.899C254.238 160.371 258.581 159.854 262.992 158.95C265.406 158.455 267.815 157.937 270.216 157.382C272.353 156.889 274.42 156.105 276.546 155.621C278.316 155.219 279.769 155.521 280.527 153.513C281.071 152.073 280.944 150.459 281.084 148.951C281.722 142.064 279.31 135.138 278.817 128.289C278.657 126.071 278.608 123.846 278.441 121.63C278.365 120.614 278.411 117.657 277.226 117.109C277.118 117.922 277.202 119.288 276.279 119.691C276.73 119.494 276.138 121.893 276.107 122.134C275.981 123.092 276.295 124.117 276.129 125.057C276.261 125.388 276.203 125.637 275.957 125.804C275.79 125.94 275.668 126.112 275.591 126.319C275.58 126.989 275.776 126.594 275.785 126.826C275.878 129.13 275.488 131.52 275.655 133.88C275.831 136.376 276.388 138.824 276.812 141.285C277.191 143.495 277.601 145.708 277.918 147.927C278.14 149.485 278.305 151.273 277.467 152.69C275.876 155.382 271.269 155.089 268.586 155.529C264.127 156.261 259.662 156.922 255.186 157.544C253.468 157.782 251.729 158.327 249.991 158.355C248.134 158.384 247.14 157.634 245.969 156.263C243.61 153.502 242.089 150.367 240.125 147.363C239.021 145.676 238.103 145.232 236.245 144.717C234.52 144.239 233.135 142.98 231.731 141.933C228.783 139.733 224.975 137.341 223.04 134.102C221.003 130.693 223.873 129.562 226.621 128.632C225.952 126.855 224.641 125.427 223.56 123.899C222.332 122.16 221.218 120.355 219.896 118.682C217.201 115.272 214.509 111.88 211.893 108.407C209.657 105.439 207.397 102.626 204.544 100.222C201.678 97.8061 198.487 95.8265 195.34 93.8043C193.696 92.7478 190.809 90.0487 188.731 90.3247C186.716 90.5927 185.919 94.3469 185.415 95.9248C184.837 97.7355 184.633 100.26 183.287 101.686C181.309 103.781 179.254 100.481 178.31 98.9599C176.581 96.1741 174.812 93.4134 173.085 90.6252C172.298 89.3541 171.162 88.1446 170.695 86.7034C170.689 86.6861 170.471 85.4468 170.691 85.6203L170.707 85.6341L170.692 85.6175C170.198 85.1282 168.374 85.0268 167.692 84.9676L167.629 84.962C166.194 84.8266 164.742 84.9333 163.312 85.0715ZM144.04 163.184C142.387 163.174 140.74 163.366 139.094 163.501C137.649 163.619 136.325 163.398 134.882 163.311C133.098 163.204 132.215 163.391 132.626 165.234C132.925 166.575 133.284 168.361 134.661 168.928C136.521 169.694 139.027 169.591 141.009 169.881C142.464 170.094 143.915 170.286 145.364 170.529C146.326 170.69 146.82 170.859 147.271 169.769C147.648 168.855 147.405 167.634 147.276 166.69C147.177 165.966 147.237 164.692 146.894 164.047C146.384 163.085 145.046 163.19 144.04 163.184ZM221.09 144.805C223.518 147.024 225.152 149.862 226.985 152.553C228.105 154.196 230.295 156.815 228.705 158.808C227.349 160.506 224.199 160.117 222.303 160.199C219.325 160.327 216.892 161.673 214.057 162.367C206.918 164.116 212.847 152.117 213.836 149.612C214.53 147.855 215.246 146.106 216.085 144.413C216.464 143.649 217.219 141.423 218.16 141.131C219.525 140.708 220.226 144.015 221.09 144.805ZM159.752 119.574C158.617 121.743 158.433 124.746 157.895 127.114C156.25 134.358 155.289 141.735 154.533 149.117C158.293 147.626 162.262 147.522 166.232 147.157C169.108 146.893 171.75 146.59 174.627 146.713C175.117 146.734 176.528 146.983 176.932 146.566C177.474 146.006 176.817 144.445 176.657 143.856C175.785 140.659 175.402 137.355 174.411 134.178C173.4 130.938 172.172 127.702 170.865 124.569C169.909 122.278 168.597 120.043 166.281 118.92C164.253 117.936 161.01 117.169 159.752 119.574ZM144.266 133.672C145.815 136.007 147.778 138.05 149.291 140.408C150.364 142.08 151.62 145.173 149.043 146.236C148.139 146.609 147.071 146.447 146.123 146.464C144.657 146.489 143.206 146.615 141.738 146.58C140.349 146.547 138.974 146.379 137.589 146.306C136.716 146.261 135.619 146.328 134.85 145.827C132.789 144.482 134.279 141.737 134.943 139.98C135.648 138.114 136.6 136.349 137.519 134.581C138.155 133.355 139.108 130.856 140.556 130.355C142.271 129.763 143.552 132.594 144.266 133.672ZM219.388 107.209C222.793 111.168 225.75 115.487 228.534 119.898C229.892 122.05 231.212 124.228 232.529 126.406C233.391 127.831 234.038 129.654 235.088 130.945C237.483 133.889 238.149 127.465 238.502 126.068C239.804 120.919 241.417 115.811 242.851 110.694H241.381C235.521 110.691 229.902 110.604 224.196 108.878C222.58 108.389 221.108 107.328 219.388 107.209ZM207.01 108.207C208.864 109.576 220.731 117.615 215.739 120.717C214.706 121.359 213.018 121.068 211.851 121.16C210.355 121.278 208.835 121.423 207.357 121.687C205.444 122.031 203.586 122.63 201.663 122.933C200.135 123.174 198.11 123.456 196.745 122.504C194.493 120.934 195.86 117.851 196.603 115.855C197.661 113.019 198.662 109.223 201.284 107.534C201.894 107.141 202.642 105.737 203.298 105.609C204.326 105.407 206.258 107.652 207.01 108.207ZM272.48 41.5271C271.586 42.2116 271.545 43.6334 271.313 44.6369C270.532 48.0123 269.443 51.298 268.797 54.7094C268.166 58.0367 267.968 61.3124 268.278 64.6843C268.484 66.9333 268.508 69.7007 269.875 71.6159C271.511 73.9075 274.751 73.7901 277.201 74.4688C279.558 75.1218 281.895 77.1444 279.324 79.2469C278.41 79.9938 277.21 80.1153 276.307 80.8349C275.193 81.7231 274.553 83.3145 274.08 84.6158C273.69 85.6871 273.701 85.8918 274.866 86.2702C275.397 86.443 275.935 86.5528 276.494 86.5064C277.769 86.4004 278.905 85.559 279.972 84.9267C282.693 83.3142 285.836 81.1614 289.085 80.918C290.123 80.8404 291.304 81.2653 292.313 80.928C293.254 80.6133 292.965 80.4207 293.129 79.5457C293.776 76.0775 294.039 72.6734 295.807 69.5359C296.68 67.9877 298.988 64.8208 300.534 67.2311C301.18 68.2377 301.414 68.7294 302.847 68.4205C304.013 68.1695 305.293 67.2474 305.062 65.9008C304.844 64.6303 303.174 63.7653 302.161 63.2085C300.812 62.4675 299.867 62.5531 298.398 62.3775C294.363 61.8951 297.192 55.9937 297.774 53.7794C298.14 52.3877 298.567 50.5888 297.607 49.3322C296.146 47.4209 292.964 48.0493 290.959 48.3205C288.186 48.6955 285.16 48.8953 282.565 47.6369C279.82 46.3059 278.65 43.3037 276.075 41.8442C275.124 41.3048 273.458 40.7784 272.48 41.5271ZM284.528 65.9066C286.436 65.881 285.509 68.6009 284.986 69.5154C283.886 71.4441 281.529 72.19 279.459 71.4788C277.822 70.9161 276.051 68.4306 278.615 68.0185C279.845 67.8211 281.062 67.9015 282.227 67.3166C282.891 66.9835 283.749 65.917 284.528 65.9066ZM279.743 51.4431C280.928 52.1626 278.905 56.7583 278.564 57.6884C278.01 59.2064 277.516 60.1863 278.927 61.3564C279.909 62.1701 281.844 62.8723 280.92 64.4939C280.065 65.9942 277.13 65.3651 275.937 64.631C274.202 63.5635 274.714 61.5187 275.096 59.8407C275.346 58.7413 277.632 50.1619 279.743 51.4431ZM93.1054 21.2687C96.7606 22.83 100.498 24.2404 104.366 25.1812C107.746 26.0036 111.069 26.8904 114.552 26.6971C117.775 26.5188 118.16 29.6847 116.319 31.8773C115.319 33.0685 114.158 33.0387 112.701 33.0847C110.995 33.1387 109.445 33.6121 107.8 34.0359C105.294 34.6814 102.757 35.2295 100.329 36.1405C99.0754 36.6108 97.8389 37.1637 96.7211 37.9068C96.0186 38.3743 94.4507 39.2164 95.28 39.8695C96.4787 40.8131 100.037 39.5204 101.464 39.4353C104.785 39.2372 108.1 38.9373 111.404 38.5215C113.021 38.3175 114.758 38.116 116.29 37.5284C117.293 37.144 118.403 36.1897 119.538 36.4321C121.932 36.9435 120.746 40.5336 119.659 41.7016C118.044 43.436 115.593 44.202 113.507 45.1874C112.049 45.8765 110.601 46.6061 109.185 47.3772C108.516 47.7415 105.4 49.1061 105.499 50.1422C105.602 51.2312 108.062 50.682 108.67 50.583C112.731 49.9226 116.395 48.3527 120.146 46.746C121.788 46.0427 123.453 45.3678 125.061 44.5881C126.184 44.043 127.288 43.2127 128.528 42.9651C131.454 42.3809 131.326 45.648 132.477 47.4129C135.9 52.6581 142.515 54.8957 147.661 57.9269C149.607 59.0734 151.464 60.3937 153.251 61.775C154.527 62.7612 155.037 64.1185 156.462 62.8179C157.649 61.7338 158.222 60.1437 158.983 58.7649C159.869 57.1596 161.053 55.7423 161.961 54.1502C163.303 51.798 163.705 49.5545 160.758 48.6889C157.663 47.7803 155.215 46.4253 152.585 44.4921C146.131 39.7476 140.775 33.689 134.34 28.9081C128.378 24.4786 122.056 20.322 114.582 19.1326C107.498 18.0048 99.7257 18.2825 93.1054 21.2687ZM286.465 55.3389C286.314 56.6451 285.992 59.4308 284.178 59.535C281.974 59.6614 283.454 52.967 284.702 52.2135C286.701 51.0071 286.593 54.2323 286.465 55.3389ZM265.96 54.8057C263.21 55.0335 262.426 58.0464 265.175 59.1132L265.96 54.8057ZM276.16 52.1616C275.807 53.529 275.932 55.7233 274.835 56.7728C273.288 58.2517 272.615 56.0813 272.626 54.8438C272.637 53.6197 273.244 50.558 274.882 50.3967C276.282 50.2589 275.117 51.8815 276.16 52.1616ZM305.846 21.739C304.84 23.8314 305.921 25.8966 306.523 27.9534C305.289 28.3513 303.625 28.0504 302.871 29.3551C302.396 30.1775 302.479 31.4157 302.621 32.3063C302.738 33.0369 303.337 34.0207 302.838 34.6987C302.186 35.5862 300.565 35.1758 299.846 36.163C298.751 37.6645 299.365 41.0939 300.901 42.2241C303.059 43.8117 301.771 39.9155 301.639 39.206C301.308 37.4286 303.149 37.6703 304.407 36.9525C305.082 36.5675 305.202 36.493 305.357 35.671C305.5 34.9137 305.424 34.3129 305.244 33.4968C304.632 30.7277 305.702 31.1799 307.902 30.5698C309.799 30.0431 309.647 28.5268 309.165 26.933C308.787 25.6836 307.66 23.6341 308.881 22.569C309.365 22.1462 310.101 22.4135 310.206 21.5312C310.277 20.9356 309.477 19.9591 309.058 19.6167C307.611 18.4359 306.434 20.5153 305.846 21.739Z" fill="black"/>
</svg>
